<svg width="363" height="261" viewBox="0 0 363 261" fill="none" xmlns="http://www.w3.org/2000/svg">
<g opacity="0.1">
<path d="M77 179H201L212 187.363H86.75L77 179Z" fill="#D9D9D9"/>
<path d="M89 189.52H213L224 197.883H98.75L89 189.52Z" fill="#D9D9D9"/>
<path d="M101 200.039H225L236 208.402H110.75L101 200.039Z" fill="#D9D9D9"/>
<path d="M113 210.559H237L248 218.922H122.75L113 210.559Z" fill="#D9D9D9"/>
<path d="M125 221.078H249L260 229.441H134.75L125 221.078Z" fill="#D9D9D9"/>
<path d="M137 231.598H261L272 239.961H146.75L137 231.598Z" fill="#D9D9D9"/>
<path d="M149 242.117H273L284 250.48H158.75L149 242.117Z" fill="#D9D9D9"/>
<path d="M161 252.637H285L296 261H170.75L161 252.637Z" fill="#D9D9D9"/>
</g>
<path d="M61.9497 179.304H76.7461V166.929L75.5982 153.902H49.6513L48.5034 166.929V179.304H63.0975" stroke="#D0D1DC" stroke-width="0.5"/>
<path d="M107.718 11.5564V10.1543C107.718 5.09854 103.619 1 98.5634 1V1C93.5076 1 89.4091 5.09854 89.4091 10.1543V11.5564M107.718 11.5564H89.4091M107.718 11.5564V34.6484M89.4091 11.5564V15.6799M89.4091 37.6174V43.2255H107.718V37.6174M89.4091 37.6174H107.718M89.4091 37.6174V35.6381M107.718 37.6174V35.6381M107.718 35.6381H89.4091M107.718 35.6381V34.6484M89.4091 35.6381V34.6484M89.4091 34.6484H107.718M89.4091 34.6484V31.8444" stroke="#D0D1DC" stroke-width="0.5"/>
<path d="M88.7498 47.0192C88.7498 52.4849 93.1806 56.9157 98.6464 56.9157C104.112 56.9157 108.543 52.4849 108.543 47.0192C108.543 41.5534 104.112 37.1226 98.6464 37.1226C93.1806 37.1226 88.7498 41.5534 88.7498 47.0192Z" fill="#040506"/>
<path d="M90.7291 47.0192C90.7291 51.3917 94.2738 54.9364 98.6464 54.9364C103.019 54.9364 106.564 51.3917 106.564 47.0192C106.564 42.6466 103.019 39.1019 98.6464 39.1019C94.2738 39.1019 90.7291 42.6466 90.7291 47.0192Z" fill="#040506"/>
<path d="M95.0176 47.0192C95.0176 49.0233 96.6423 50.6479 98.6464 50.6479C100.65 50.6479 102.275 49.0233 102.275 47.0192C102.275 45.015 100.65 43.3904 98.6464 43.3904C96.6423 43.3904 95.0176 45.015 95.0176 47.0192Z" fill="#040506"/>
<path d="M88.7498 47.0192C88.7498 52.4849 93.1806 56.9157 98.6464 56.9157C104.112 56.9157 108.543 52.4849 108.543 47.0192C108.543 41.5534 104.112 37.1226 98.6464 37.1226C93.1806 37.1226 88.7498 41.5534 88.7498 47.0192Z" stroke="#D0D1DC" stroke-width="0.5"/>
<path d="M90.7291 47.0192C90.7291 51.3917 94.2738 54.9364 98.6464 54.9364C103.019 54.9364 106.564 51.3917 106.564 47.0192C106.564 42.6466 103.019 39.1019 98.6464 39.1019C94.2738 39.1019 90.7291 42.6466 90.7291 47.0192Z" stroke="#D0D1DC" stroke-width="0.5"/>
<path d="M95.0176 47.0192C95.0176 49.0233 96.6423 50.6479 98.6464 50.6479C100.65 50.6479 102.275 49.0233 102.275 47.0192C102.275 45.015 100.65 43.3904 98.6464 43.3904C96.6423 43.3904 95.0176 45.015 95.0176 47.0192Z" stroke="#D0D1DC" stroke-width="0.5"/>
<path d="M0.999559 33.6587C0.999559 39.9443 6.09504 45.0397 12.3806 45.0397C18.6662 45.0397 23.7617 39.9443 23.7617 33.6587C23.7617 27.3731 18.6662 22.2776 12.3806 22.2776C6.09504 22.2776 0.999559 27.3731 0.999559 33.6587Z" stroke="#D0D1DC" stroke-width="0.5"/>
<path d="M58.0719 108.048C58.0719 116.247 64.7182 122.893 72.9168 122.893C81.1154 122.893 87.7617 116.247 87.7617 108.048C87.7617 99.8494 81.1154 93.2031 72.9168 93.2031C64.7182 93.2031 58.0719 99.8494 58.0719 108.048Z" stroke="#D0D1DC" stroke-width="0.5"/>
<path d="M68.6974 108.116C68.6974 105.75 70.6157 103.831 72.982 103.831C75.3483 103.831 77.2666 105.75 77.2666 108.116C77.2666 110.482 75.3483 112.4 72.982 112.4C70.6157 112.4 68.6974 110.482 68.6974 108.116Z" fill="#FA4616"/>
<path d="M63.6797 108.048C63.6797 113.15 67.8151 117.285 72.9165 117.285C78.0179 117.285 82.1533 113.15 82.1533 108.048C82.1533 102.947 78.0179 98.8115 72.9165 98.8115C67.8151 98.8115 63.6797 102.947 63.6797 108.048Z" stroke="#D0D1DC" stroke-width="0.5"/>
<path d="M23.4678 36.191L23.8676 35.5234C25.2346 33.2412 27.6995 31.8444 30.3598 31.8444V31.8444H89.2445V31.8444C94.6161 27.795 94.6161 19.7293 89.2445 15.6799V15.6799H30.3598L20.958 20.2983L10.5666 22.4426" stroke="#D0D1DC" stroke-width="0.5"/>
<path d="M23.2151 37.3268V37.3268C23.5713 41.9213 25.3084 46.3007 28.1983 49.8901L59.8844 89.2445V89.2445C62.7023 92.1667 66.6859 93.6651 70.7311 93.3245L71.6852 93.2441M7.4371 43.8905L10.6127 50.3623C11.4503 52.0693 11.8859 53.9455 11.8859 55.847V55.847C11.8859 58.6741 12.848 61.4171 14.6142 63.6248L42.5139 98.4994C44.4826 100.96 47.1412 102.777 50.1492 103.717V103.717C52.3251 104.397 54.3284 105.539 56.0218 107.065L58.053 108.896" stroke="#D0D1DC" stroke-width="0.5"/>
<path d="M75.5977 122.655V131.965M58.1787 110.158L57.9881 111.149C57.0624 115.959 55.1684 120.531 52.4211 124.587L51.5076 125.935C50.3019 127.715 49.6574 129.815 49.6574 131.965V131.965M75.5977 131.965H49.6574M75.5977 131.965V135.594M49.6574 131.965V135.594M49.6574 135.594H75.5977M49.6574 135.594V150.274M75.5977 135.594V150.274M49.6574 150.274V153.902H75.5977V150.274M49.6574 150.274H75.5977" stroke="#D0D1DC" stroke-width="0.5"/>
<circle cx="0.659773" cy="0.659773" r="0.409773" transform="matrix(-1 0 0 1 103.595 42.4009)" fill="#808295" stroke="#D0D1DC" stroke-width="0.5"/>
<circle cx="0.659773" cy="0.659773" r="0.409773" transform="matrix(0.965926 0.258819 0.258819 -0.965926 92.082 47.9639)" fill="#808295" stroke="#D0D1DC" stroke-width="0.5"/>
<circle cx="0.659773" cy="0.659773" r="0.409773" transform="matrix(-1 0 0 1 99.3057 40.4216)" fill="#808295" stroke="#D0D1DC" stroke-width="0.5"/>
<circle cx="0.659773" cy="0.659773" r="0.409773" transform="matrix(0.965926 0.258819 0.258819 -0.965926 94.3906 52.0706)" fill="#808295" stroke="#D0D1DC" stroke-width="0.5"/>
<circle cx="0.659773" cy="0.659773" r="0.409773" transform="matrix(-1 0 0 1 95.0176 42.4009)" fill="#808295" stroke="#D0D1DC" stroke-width="0.5"/>
<circle cx="0.659773" cy="0.659773" r="0.409773" transform="matrix(0.965926 0.258819 0.258819 -0.965926 102.309 51.9224)" fill="#808295" stroke="#D0D1DC" stroke-width="0.5"/>
<circle cx="0.659773" cy="0.659773" r="0.409773" transform="matrix(0.965926 0.258819 0.258819 -0.965926 104.288 47.6338)" fill="#808295" stroke="#D0D1DC" stroke-width="0.5"/>
<path d="M8.06951 33.35C8.06951 35.7163 9.98778 37.6346 12.3541 37.6346C14.7204 37.6346 16.6387 35.7163 16.6387 33.35C16.6387 30.9837 14.7204 29.0654 12.3541 29.0654C9.98778 29.0654 8.06951 30.9837 8.06951 33.35Z" fill="#FA4616"/>
<path d="M301.593 258.304H286.797V245.929L287.945 232.902H313.892L315.04 245.929V258.304H300.445" stroke="#D0D1DC" stroke-width="0.5"/>
<path d="M255.825 90.5564V89.1543C255.825 84.0985 259.924 80 264.98 80V80C270.035 80 274.134 84.0985 274.134 89.1543V90.5564M255.825 90.5564H274.134M255.825 90.5564V113.648M274.134 90.5564V94.6799M274.134 116.617V122.225H255.825V116.617M274.134 116.617H255.825M274.134 116.617V114.638M255.825 116.617V114.638M255.825 114.638H274.134M255.825 114.638V113.648M274.134 114.638V113.648M274.134 113.648H255.825M274.134 113.648V110.844" stroke="#D0D1DC" stroke-width="0.5"/>
<path d="M274.793 126.019C274.793 131.485 270.362 135.916 264.897 135.916C259.431 135.916 255 131.485 255 126.019C255 120.553 259.431 116.123 264.897 116.123C270.362 116.123 274.793 120.553 274.793 126.019Z" fill="#040506"/>
<path d="M272.814 126.019C272.814 130.392 269.269 133.936 264.897 133.936C260.524 133.936 256.979 130.392 256.979 126.019C256.979 121.647 260.524 118.102 264.897 118.102C269.269 118.102 272.814 121.647 272.814 126.019Z" fill="#040506"/>
<path d="M268.525 126.019C268.525 128.023 266.901 129.648 264.897 129.648C262.892 129.648 261.268 128.023 261.268 126.019C261.268 124.015 262.892 122.39 264.897 122.39C266.901 122.39 268.525 124.015 268.525 126.019Z" fill="#040506"/>
<path d="M274.793 126.019C274.793 131.485 270.362 135.916 264.897 135.916C259.431 135.916 255 131.485 255 126.019C255 120.553 259.431 116.123 264.897 116.123C270.362 116.123 274.793 120.553 274.793 126.019Z" stroke="#D0D1DC" stroke-width="0.5"/>
<path d="M272.814 126.019C272.814 130.392 269.269 133.936 264.897 133.936C260.524 133.936 256.979 130.392 256.979 126.019C256.979 121.647 260.524 118.102 264.897 118.102C269.269 118.102 272.814 121.647 272.814 126.019Z" stroke="#D0D1DC" stroke-width="0.5"/>
<path d="M268.525 126.019C268.525 128.023 266.901 129.648 264.897 129.648C262.892 129.648 261.268 128.023 261.268 126.019C261.268 124.015 262.892 122.39 264.897 122.39C266.901 122.39 268.525 124.015 268.525 126.019Z" stroke="#D0D1DC" stroke-width="0.5"/>
<path d="M362.543 112.659C362.543 118.944 357.448 124.04 351.162 124.04C344.877 124.04 339.781 118.944 339.781 112.659C339.781 106.373 344.877 101.278 351.162 101.278C357.448 101.278 362.543 106.373 362.543 112.659Z" stroke="#D0D1DC" stroke-width="0.5"/>
<path d="M305.471 187.048C305.471 195.247 298.825 201.893 290.626 201.893C282.428 201.893 275.781 195.247 275.781 187.048C275.781 178.849 282.428 172.203 290.626 172.203C298.825 172.203 305.471 178.849 305.471 187.048Z" stroke="#D0D1DC" stroke-width="0.5"/>
<path d="M294.846 187.116C294.846 184.75 292.927 182.831 290.561 182.831C288.195 182.831 286.276 184.75 286.276 187.116C286.276 189.482 288.195 191.4 290.561 191.4C292.927 191.4 294.846 189.482 294.846 187.116Z" fill="#FA4616"/>
<path d="M299.863 187.048C299.863 192.15 295.728 196.285 290.626 196.285C285.525 196.285 281.39 192.15 281.39 187.048C281.39 181.947 285.525 177.812 290.626 177.812C295.728 177.812 299.863 181.947 299.863 187.048Z" stroke="#D0D1DC" stroke-width="0.5"/>
<path d="M340.075 115.191L339.675 114.523C338.308 112.241 335.843 110.844 333.183 110.844V110.844H274.298V110.844C268.927 106.795 268.927 98.7293 274.298 94.6799V94.6799H333.183L342.585 99.2983L352.976 101.443" stroke="#D0D1DC" stroke-width="0.5"/>
<path d="M340.328 116.327V116.327C339.972 120.922 338.235 125.301 335.345 128.89L303.659 168.245V168.245C300.841 171.167 296.857 172.665 292.812 172.325L291.858 172.244M356.106 122.891L352.93 129.363C352.093 131.07 351.657 132.946 351.657 134.847V134.847C351.657 137.674 350.695 140.417 348.929 142.625L321.029 177.5C319.06 179.96 316.402 181.777 313.394 182.717V182.717C311.218 183.397 309.215 184.54 307.521 186.066L305.49 187.896" stroke="#D0D1DC" stroke-width="0.5"/>
<path d="M287.945 201.654V210.965M305.364 189.158L305.555 190.149C306.481 194.959 308.375 199.531 311.122 203.586L312.035 204.935C313.241 206.715 313.886 208.815 313.886 210.965V210.965M287.945 210.965H313.886M287.945 210.965V214.594M313.886 210.965V214.594M313.886 214.594H287.945M313.886 214.594V229.273M287.945 214.594V229.273M313.886 229.273V232.902H287.945V229.273M313.886 229.273H287.945" stroke="#D0D1DC" stroke-width="0.5"/>
<circle cx="260.608" cy="122.061" r="0.409773" fill="#808295" stroke="#D0D1DC" stroke-width="0.5"/>
<circle cx="270.653" cy="126.497" r="0.409773" transform="rotate(165 270.653 126.497)" fill="#808295" stroke="#D0D1DC" stroke-width="0.5"/>
<circle cx="264.897" cy="120.081" r="0.409773" fill="#808295" stroke="#D0D1DC" stroke-width="0.5"/>
<circle cx="268.344" cy="130.604" r="0.409773" transform="rotate(165 268.344 130.604)" fill="#808295" stroke="#D0D1DC" stroke-width="0.5"/>
<circle cx="269.185" cy="122.061" r="0.409773" fill="#808295" stroke="#D0D1DC" stroke-width="0.5"/>
<circle cx="260.426" cy="130.456" r="0.409773" transform="rotate(165 260.426 130.456)" fill="#808295" stroke="#D0D1DC" stroke-width="0.5"/>
<circle cx="258.447" cy="126.167" r="0.409773" transform="rotate(165 258.447 126.167)" fill="#808295" stroke="#D0D1DC" stroke-width="0.5"/>
<path d="M355.473 112.35C355.473 114.716 353.555 116.635 351.189 116.635C348.823 116.635 346.904 114.716 346.904 112.35C346.904 109.984 348.823 108.065 351.189 108.065C353.555 108.065 355.473 109.984 355.473 112.35Z" fill="#FA4616"/>
<path d="M133 142H187.312V155.517V196.483H146.688H133V142Z" fill="#040506"/>
<path d="M146.688 155.517H187.312H201V210H146.688V196.483V155.517Z" fill="#040506"/>
<path d="M187.312 142V155.517H201L187.312 142Z" fill="#040506"/>
<path d="M146.688 196.483H133L146.688 210V196.483Z" fill="#040506"/>
<path d="M133 142H187.312M133 142V196.483M133 142L146.688 155.517M187.312 142L201 155.517M187.312 142V155.517M187.312 196.483L201 210M187.312 196.483V155.517M187.312 196.483H146.688M133 196.483L146.688 210M133 196.483H146.688M146.688 155.517H187.312M146.688 155.517V196.483M201 155.517V210M201 155.517H187.312M201 210H146.688M146.688 210V196.483" stroke="#808295"/>
<path d="M169 178H223.312V191.517V232.483H182.688H169V178Z" fill="#040506"/>
<path d="M182.688 191.517H223.312H237V246H182.688V232.483V191.517Z" fill="#040506"/>
<path d="M223.312 178V191.517H237L223.312 178Z" fill="#040506"/>
<path d="M182.688 232.483H169L182.688 246V232.483Z" fill="#040506"/>
<path d="M169 178H223.312M169 178V232.483M169 178L182.688 191.517M223.312 178L237 191.517M223.312 178V191.517M223.312 232.483L237 246M223.312 232.483V191.517M223.312 232.483H182.688M169 232.483L182.688 246M169 232.483H182.688M182.688 191.517H223.312M182.688 191.517V232.483M237 191.517V246M237 191.517H223.312M237 246H182.688M182.688 246V232.483" stroke="#808295"/>
</svg>
