<svg width="501" height="357" viewBox="0 0 501 357" fill="none" xmlns="http://www.w3.org/2000/svg">
<path opacity="0.1" d="M88.623 328.268H456.232L500.087 356H132.478L88.623 328.268Z" fill="#D9D9D9"/>
<path d="M114.42 0L111.78 -2.3077e-07L111.78 2.6397L114.42 2.6397L114.42 0Z" fill="#FA4616"/>
<path d="M114.42 11.8787L111.78 11.8787L111.78 14.5184L114.42 14.5184L114.42 11.8787Z" fill="#FA4616"/>
<path d="M114.42 23.7573L111.78 23.7573L111.78 26.397L114.42 26.397L114.42 23.7573Z" fill="#FA4616"/>
<path d="M114.42 35.636L111.78 35.636L111.78 38.2757L114.42 38.2757L114.42 35.636Z" fill="#FA4616"/>
<path d="M114.42 47.5147L111.78 47.5147L111.78 50.1544L114.42 50.1544L114.42 47.5147Z" fill="#FA4616"/>
<path d="M114.42 59.3933L111.78 59.3933L111.78 62.033L114.42 62.033L114.42 59.3933Z" fill="#FA4616"/>
<path d="M114.42 71.272L111.78 71.272L111.78 73.9117L114.42 73.9117L114.42 71.272Z" fill="#FA4616"/>
<path d="M114.42 83.1506L111.78 83.1506L111.78 85.7903L114.42 85.7903L114.42 83.1506Z" fill="#FA4616"/>
<path d="M114.42 95.0293L111.78 95.0293L111.78 97.669L114.42 97.669L114.42 95.0293Z" fill="#FA4616"/>
<path d="M114.42 106.908L111.78 106.908L111.78 109.548L114.42 109.548L114.42 106.908Z" fill="#FA4616"/>
<path d="M114.42 118.787L111.78 118.787L111.78 121.426L114.42 121.426L114.42 118.787Z" fill="#FA4616"/>
<path d="M114.42 130.755L111.78 130.755L111.78 133.395L114.42 133.395L114.42 130.755Z" fill="#FA4616"/>
<path d="M114.42 142.724L111.78 142.724L111.78 145.364L114.42 145.364L114.42 142.724Z" fill="#FA4616"/>
<path d="M114.42 154.693L111.78 154.693L111.78 157.332L114.42 157.332L114.42 154.693Z" fill="#FA4616"/>
<path d="M114.42 166.661L111.78 166.661L111.78 169.301L114.42 169.301L114.42 166.661Z" fill="#FA4616"/>
<path d="M98.5817 -1.38462e-06L95.942 -1.61539e-06L95.942 2.6397L98.5817 2.6397L98.5817 -1.38462e-06Z" fill="#FA4616"/>
<path d="M98.5817 11.8787L95.942 11.8787L95.942 14.5184L98.5817 14.5184L98.5817 11.8787Z" fill="#FA4616"/>
<path d="M98.5817 23.7573L95.942 23.7573L95.942 26.397L98.5817 26.397L98.5817 23.7573Z" fill="#FA4616"/>
<path d="M98.5817 35.636L95.942 35.636L95.942 38.2757L98.5817 38.2757L98.5817 35.636Z" fill="#FA4616"/>
<path d="M98.5817 47.5147L95.942 47.5147L95.942 50.1544L98.5817 50.1544L98.5817 47.5147Z" fill="#FA4616"/>
<path d="M98.5817 59.3933L95.942 59.3933L95.942 62.033L98.5817 62.033L98.5817 59.3933Z" fill="#FA4616"/>
<path d="M98.5817 71.272L95.942 71.272L95.942 73.9117L98.5817 73.9117L98.5817 71.272Z" fill="#FA4616"/>
<path d="M98.5817 83.1506L95.942 83.1506L95.942 85.7903L98.5817 85.7903L98.5817 83.1506Z" fill="#FA4616"/>
<path d="M98.5817 95.0293L95.942 95.0293L95.942 97.669L98.5817 97.669L98.5817 95.0293Z" fill="#FA4616"/>
<path d="M98.5817 106.908L95.942 106.908L95.942 109.548L98.5817 109.548L98.5817 106.908Z" fill="#FA4616"/>
<path d="M98.5814 118.787L95.9417 118.787L95.9417 121.426L98.5814 121.426L98.5814 118.787Z" fill="#FA4616"/>
<path d="M98.5814 130.755L95.9417 130.755L95.9417 133.395L98.5814 133.395L98.5814 130.755Z" fill="#FA4616"/>
<path d="M98.5814 142.724L95.9417 142.724L95.9417 145.364L98.5814 145.364L98.5814 142.724Z" fill="#FA4616"/>
<path d="M98.5814 154.693L95.9417 154.693L95.9417 157.332L98.5814 157.332L98.5814 154.693Z" fill="#FA4616"/>
<path d="M98.5814 166.661L95.9417 166.661L95.9417 169.301L98.5814 169.301L98.5814 166.661Z" fill="#FA4616"/>
<path d="M82.7435 -2.76924e-06L80.1038 -3.00001e-06L80.1038 2.6397L82.7435 2.6397L82.7435 -2.76924e-06Z" fill="#FA4616"/>
<path d="M82.7435 11.8787L80.1038 11.8787L80.1038 14.5184L82.7435 14.5184L82.7435 11.8787Z" fill="#FA4616"/>
<path d="M82.7435 23.7573L80.1038 23.7573L80.1038 26.397L82.7435 26.397L82.7435 23.7573Z" fill="#FA4616"/>
<path d="M82.7435 35.636L80.1038 35.636L80.1038 38.2757L82.7435 38.2757L82.7435 35.636Z" fill="#FA4616"/>
<path d="M82.7435 47.5147L80.1038 47.5146L80.1038 50.1543L82.7435 50.1543L82.7435 47.5147Z" fill="#FA4616"/>
<path d="M82.7435 59.3933L80.1038 59.3933L80.1038 62.033L82.7435 62.033L82.7435 59.3933Z" fill="#FA4616"/>
<path d="M82.7435 71.272L80.1038 71.272L80.1038 73.9117L82.7435 73.9117L82.7435 71.272Z" fill="#FA4616"/>
<path d="M82.7435 83.1506L80.1038 83.1506L80.1038 85.7903L82.7435 85.7903L82.7435 83.1506Z" fill="#FA4616"/>
<path d="M82.7435 95.0293L80.1038 95.0293L80.1038 97.669L82.7435 97.669L82.7435 95.0293Z" fill="#FA4616"/>
<path d="M82.7435 106.908L80.1038 106.908L80.1038 109.548L82.7435 109.548L82.7435 106.908Z" fill="#FA4616"/>
<path d="M82.7429 118.787L80.1032 118.787L80.1032 121.426L82.7429 121.426L82.7429 118.787Z" fill="#FA4616"/>
<path d="M82.7429 130.755L80.1032 130.755L80.1032 133.395L82.7429 133.395L82.7429 130.755Z" fill="#FA4616"/>
<path d="M82.7429 142.724L80.1032 142.724L80.1032 145.364L82.7429 145.364L82.7429 142.724Z" fill="#FA4616"/>
<path d="M82.7429 154.693L80.1032 154.693L80.1032 157.332L82.7429 157.332L82.7429 154.693Z" fill="#FA4616"/>
<path d="M82.7429 166.661L80.1032 166.661L80.1032 169.301L82.7429 169.301L82.7429 166.661Z" fill="#FA4616"/>
<path d="M66.9053 -4.15386e-06L64.2656 -4.38463e-06L64.2656 2.6397L66.9053 2.6397L66.9053 -4.15386e-06Z" fill="#FA4616"/>
<path d="M66.9053 11.8787L64.2656 11.8787L64.2656 14.5184L66.9053 14.5184L66.9053 11.8787Z" fill="#FA4616"/>
<path d="M66.9053 23.7573L64.2656 23.7573L64.2656 26.397L66.9053 26.397L66.9053 23.7573Z" fill="#FA4616"/>
<path d="M66.9053 35.636L64.2656 35.636L64.2656 38.2757L66.9053 38.2757L66.9053 35.636Z" fill="#FA4616"/>
<path d="M66.9053 47.5146L64.2656 47.5146L64.2656 50.1543L66.9053 50.1543L66.9053 47.5146Z" fill="#FA4616"/>
<path d="M66.9053 59.3933L64.2656 59.3933L64.2656 62.033L66.9053 62.033L66.9053 59.3933Z" fill="#FA4616"/>
<path d="M66.9053 71.272L64.2656 71.272L64.2656 73.9117L66.9053 73.9117L66.9053 71.272Z" fill="#FA4616"/>
<path d="M66.9053 83.1506L64.2656 83.1506L64.2656 85.7903L66.9053 85.7903L66.9053 83.1506Z" fill="#FA4616"/>
<path d="M66.9053 95.0293L64.2656 95.0293L64.2656 97.669L66.9053 97.669L66.9053 95.0293Z" fill="#FA4616"/>
<path d="M66.9053 106.908L64.2656 106.908L64.2656 109.548L66.9053 109.548L66.9053 106.908Z" fill="#FA4616"/>
<path d="M66.9056 118.787L64.2659 118.787L64.2659 121.426L66.9056 121.426L66.9056 118.787Z" fill="#FA4616"/>
<path d="M66.9056 130.755L64.2659 130.755L64.2659 133.395L66.9056 133.395L66.9056 130.755Z" fill="#FA4616"/>
<path d="M66.9056 142.724L64.2659 142.724L64.2659 145.364L66.9056 145.364L66.9056 142.724Z" fill="#FA4616"/>
<path d="M66.9056 154.693L64.2659 154.693L64.2659 157.332L66.9056 157.332L66.9056 154.693Z" fill="#FA4616"/>
<path d="M66.9056 166.661L64.2659 166.661L64.2659 169.301L66.9056 169.301L66.9056 166.661Z" fill="#FA4616"/>
<path d="M51.067 -5.53848e-06L48.4273 -5.76925e-06L48.4273 2.6397L51.067 2.6397L51.067 -5.53848e-06Z" fill="#FA4616"/>
<path d="M51.067 11.8787L48.4273 11.8787L48.4273 14.5184L51.067 14.5184L51.067 11.8787Z" fill="#FA4616"/>
<path d="M51.067 23.7573L48.4273 23.7573L48.4273 26.397L51.067 26.397L51.067 23.7573Z" fill="#FA4616"/>
<path d="M51.067 35.636L48.4273 35.636L48.4273 38.2757L51.067 38.2757L51.067 35.636Z" fill="#FA4616"/>
<path d="M51.067 47.5146L48.4273 47.5146L48.4273 50.1543L51.067 50.1543L51.067 47.5146Z" fill="#FA4616"/>
<path d="M51.067 59.3933L48.4273 59.3933L48.4273 62.033L51.067 62.033L51.067 59.3933Z" fill="#FA4616"/>
<path d="M51.067 71.272L48.4273 71.272L48.4273 73.9117L51.067 73.9117L51.067 71.272Z" fill="#FA4616"/>
<path d="M51.067 83.1506L48.4273 83.1506L48.4273 85.7903L51.067 85.7903L51.067 83.1506Z" fill="#FA4616"/>
<path d="M51.067 95.0293L48.4273 95.0293L48.4273 97.669L51.067 97.669L51.067 95.0293Z" fill="#FA4616"/>
<path d="M51.067 106.908L48.4273 106.908L48.4273 109.548L51.067 109.548L51.067 106.908Z" fill="#FA4616"/>
<path d="M51.0671 118.787L48.4274 118.787L48.4274 121.426L51.0671 121.426L51.0671 118.787Z" fill="#FA4616"/>
<path d="M51.0671 130.755L48.4274 130.755L48.4274 133.395L51.0671 133.395L51.0671 130.755Z" fill="#FA4616"/>
<path d="M51.0671 142.724L48.4274 142.724L48.4274 145.364L51.0671 145.364L51.0671 142.724Z" fill="#FA4616"/>
<path d="M51.0671 154.693L48.4274 154.693L48.4274 157.332L51.0671 157.332L51.0671 154.693Z" fill="#FA4616"/>
<path d="M51.0671 166.661L48.4274 166.661L48.4274 169.301L51.0671 169.301L51.0671 166.661Z" fill="#FA4616"/>
<path d="M35.2288 -6.9231e-06L32.5891 -7.15388e-06L32.5891 2.6397L35.2288 2.6397L35.2288 -6.9231e-06Z" fill="#FA4616"/>
<path d="M35.2288 11.8787L32.5891 11.8787L32.5891 14.5184L35.2288 14.5184L35.2288 11.8787Z" fill="#FA4616"/>
<path d="M35.2288 23.7573L32.5891 23.7573L32.5891 26.397L35.2288 26.397L35.2288 23.7573Z" fill="#FA4616"/>
<path d="M35.2288 35.636L32.5891 35.636L32.5891 38.2757L35.2288 38.2757L35.2288 35.636Z" fill="#FA4616"/>
<path d="M35.2288 47.5146L32.5891 47.5146L32.5891 50.1543L35.2288 50.1543L35.2288 47.5146Z" fill="#FA4616"/>
<path d="M35.2288 59.3933L32.5891 59.3933L32.5891 62.033L35.2288 62.033L35.2288 59.3933Z" fill="#FA4616"/>
<path d="M35.2288 71.272L32.5891 71.272L32.5891 73.9117L35.2288 73.9117L35.2288 71.272Z" fill="#FA4616"/>
<path d="M35.2288 83.1506L32.5891 83.1506L32.5891 85.7903L35.2288 85.7903L35.2288 83.1506Z" fill="#FA4616"/>
<path d="M35.2288 95.0293L32.5891 95.0293L32.5891 97.669L35.2288 97.669L35.2288 95.0293Z" fill="#FA4616"/>
<path d="M35.2288 106.908L32.5891 106.908L32.5891 109.548L35.2288 109.548L35.2288 106.908Z" fill="#FA4616"/>
<path d="M35.2286 118.787L32.5889 118.787L32.5889 121.426L35.2286 121.426L35.2286 118.787Z" fill="#FA4616"/>
<path d="M35.2286 130.755L32.5889 130.755L32.5889 133.395L35.2286 133.395L35.2286 130.755Z" fill="#FA4616"/>
<path d="M35.2286 142.724L32.5889 142.724L32.5889 145.364L35.2286 145.364L35.2286 142.724Z" fill="#FA4616"/>
<path d="M35.2286 154.693L32.5889 154.693L32.5889 157.332L35.2286 157.332L35.2286 154.693Z" fill="#FA4616"/>
<path d="M35.2286 166.661L32.5889 166.661L32.5889 169.301L35.2286 169.301L35.2286 166.661Z" fill="#FA4616"/>
<path d="M19.3906 -8.30773e-06L16.7509 -8.5385e-06L16.7509 2.6397L19.3906 2.6397L19.3906 -8.30773e-06Z" fill="#FA4616"/>
<path d="M19.3906 11.8787L16.7509 11.8787L16.7509 14.5184L19.3906 14.5184L19.3906 11.8787Z" fill="#FA4616"/>
<path d="M19.3906 23.7573L16.7509 23.7573L16.7509 26.397L19.3906 26.397L19.3906 23.7573Z" fill="#FA4616"/>
<path d="M19.3906 35.636L16.7509 35.636L16.7509 38.2757L19.3906 38.2757L19.3906 35.636Z" fill="#FA4616"/>
<path d="M19.3906 47.5146L16.7509 47.5146L16.7509 50.1543L19.3906 50.1543L19.3906 47.5146Z" fill="#FA4616"/>
<path d="M19.3906 59.3933L16.7509 59.3933L16.7509 62.033L19.3906 62.033L19.3906 59.3933Z" fill="#FA4616"/>
<path d="M19.3906 71.272L16.7509 71.272L16.7509 73.9117L19.3906 73.9117L19.3906 71.272Z" fill="#FA4616"/>
<path d="M19.3906 83.1506L16.7509 83.1506L16.7509 85.7903L19.3906 85.7903L19.3906 83.1506Z" fill="#FA4616"/>
<path d="M19.3906 95.0293L16.7509 95.0293L16.7509 97.669L19.3906 97.669L19.3906 95.0293Z" fill="#FA4616"/>
<path d="M19.3906 106.908L16.7509 106.908L16.7509 109.548L19.3906 109.548L19.3906 106.908Z" fill="#FA4616"/>
<path d="M19.3901 118.787L16.7504 118.787L16.7504 121.426L19.3901 121.426L19.3901 118.787Z" fill="#FA4616"/>
<path d="M19.3901 130.755L16.7504 130.755L16.7504 133.395L19.3901 133.395L19.3901 130.755Z" fill="#FA4616"/>
<path d="M19.3901 142.724L16.7504 142.724L16.7504 145.364L19.3901 145.364L19.3901 142.724Z" fill="#FA4616"/>
<path d="M19.3901 154.693L16.7504 154.693L16.7504 157.332L19.3901 157.332L19.3901 154.693Z" fill="#FA4616"/>
<path d="M19.3901 166.661L16.7504 166.661L16.7504 169.301L19.3901 169.301L19.3901 166.661Z" fill="#FA4616"/>
<path d="M3.55239 -9.69235e-06L0.912692 -9.92312e-06L0.912692 2.63969L3.55239 2.63969L3.55239 -9.69235e-06Z" fill="#FA4616"/>
<path d="M3.55239 11.8787L0.912691 11.8787L0.912691 14.5184L3.55239 14.5184L3.55239 11.8787Z" fill="#FA4616"/>
<path d="M3.55239 23.7573L0.91269 23.7573L0.91269 26.397L3.55239 26.397L3.55239 23.7573Z" fill="#FA4616"/>
<path d="M3.55239 35.636L0.912689 35.636L0.912689 38.2757L3.55239 38.2757L3.55239 35.636Z" fill="#FA4616"/>
<path d="M3.55239 47.5146L0.912688 47.5146L0.912688 50.1543L3.55239 50.1543L3.55239 47.5146Z" fill="#FA4616"/>
<path d="M3.55239 59.3933L0.912687 59.3933L0.912687 62.033L3.55239 62.033L3.55239 59.3933Z" fill="#FA4616"/>
<path d="M3.55239 71.272L0.912686 71.272L0.912686 73.9117L3.55238 73.9117L3.55239 71.272Z" fill="#FA4616"/>
<path d="M3.55238 83.1506L0.912685 83.1506L0.912685 85.7903L3.55238 85.7903L3.55238 83.1506Z" fill="#FA4616"/>
<path d="M3.55238 95.0293L0.912684 95.0293L0.912684 97.669L3.55238 97.669L3.55238 95.0293Z" fill="#FA4616"/>
<path d="M3.55238 106.908L0.912683 106.908L0.912682 109.548L3.55238 109.548L3.55238 106.908Z" fill="#FA4616"/>
<path d="M3.55285 118.787L0.913154 118.787L0.913154 121.426L3.55285 121.426L3.55285 118.787Z" fill="#FA4616"/>
<path d="M3.55285 130.755L0.913153 130.755L0.913153 133.395L3.55285 133.395L3.55285 130.755Z" fill="#FA4616"/>
<path d="M3.55285 142.724L0.913152 142.724L0.913152 145.364L3.55285 145.364L3.55285 142.724Z" fill="#FA4616"/>
<path d="M3.55285 154.693L0.913151 154.693L0.913151 157.332L3.55285 157.332L3.55285 154.693Z" fill="#FA4616"/>
<path d="M3.55285 166.661L0.91315 166.661L0.91315 169.301L3.55285 169.301L3.55285 166.661Z" fill="#FA4616"/>
<path d="M88.623 58.0437H291.359M88.623 58.0437V328.602M88.623 58.0437L132.25 85.442M291.359 58.0437L334.985 85.442M291.359 58.0437V193.323V328.602M291.359 328.602H88.623M291.359 328.602L334.985 356M88.623 328.602L132.25 356M132.25 85.442H334.985M132.25 85.442V356M334.985 85.442V356M334.985 356H132.25" stroke="#808295"/>
<path d="M188.969 326.241L190.449 309.439H223.917L225.398 326.241V342.203H208.054H206.573H188.969V326.241Z" fill="#040506"/>
<path d="M208.054 342.203H188.969V326.241L190.449 309.439H223.917L225.398 326.241V342.203H206.573" stroke="#D0D1DC" stroke-width="0.5"/>
<path d="M149.02 125.833V124.025C149.02 117.504 154.306 112.217 160.827 112.217V112.217C167.349 112.217 172.635 117.504 172.635 124.025V125.833M149.02 125.833H172.635M149.02 125.833V155.619M172.635 125.833V131.152M172.635 159.448V166.682H149.02V159.448M172.635 159.448H149.02M172.635 159.448V156.895M149.02 159.448V156.895M149.02 156.895H172.635M149.02 156.895V155.619M172.635 156.895V155.619M172.635 155.619H149.02M172.635 155.619V152.002" stroke="#D0D1DC" stroke-width="0.5"/>
<path d="M173.485 171.575C173.485 178.625 167.77 184.341 160.72 184.341C153.67 184.341 147.955 178.625 147.955 171.575C147.955 164.525 153.67 158.81 160.72 158.81C167.77 158.81 173.485 164.525 173.485 171.575Z" fill="#040506"/>
<path d="M170.932 171.575C170.932 177.215 166.36 181.788 160.72 181.788C155.08 181.788 150.508 177.215 150.508 171.575C150.508 165.935 155.08 161.363 160.72 161.363C166.36 161.363 170.932 165.935 170.932 171.575Z" fill="#040506"/>
<path d="M165.401 171.575C165.401 174.16 163.305 176.256 160.72 176.256C158.135 176.256 156.04 174.16 156.04 171.575C156.04 168.99 158.135 166.895 160.72 166.895C163.305 166.895 165.401 168.99 165.401 171.575Z" fill="#040506"/>
<path d="M173.485 171.575C173.485 178.625 167.77 184.341 160.72 184.341C153.67 184.341 147.955 178.625 147.955 171.575C147.955 164.525 153.67 158.81 160.72 158.81C167.77 158.81 173.485 164.525 173.485 171.575Z" stroke="#D0D1DC" stroke-width="0.5"/>
<path d="M170.932 171.575C170.932 177.215 166.36 181.788 160.72 181.788C155.08 181.788 150.508 177.215 150.508 171.575C150.508 165.935 155.08 161.363 160.72 161.363C166.36 161.363 170.932 165.935 170.932 171.575Z" stroke="#D0D1DC" stroke-width="0.5"/>
<path d="M165.401 171.575C165.401 174.16 163.305 176.256 160.72 176.256C158.135 176.256 156.04 174.16 156.04 171.575C156.04 168.99 158.135 166.895 160.72 166.895C163.305 166.895 165.401 168.99 165.401 171.575Z" stroke="#D0D1DC" stroke-width="0.5"/>
<path d="M286.67 154.342C286.67 162.45 280.098 169.022 271.99 169.022C263.883 169.022 257.311 162.45 257.311 154.342C257.311 146.235 263.883 139.662 271.99 139.662C280.098 139.662 286.67 146.235 286.67 154.342Z" stroke="#D0D1DC" stroke-width="0.5"/>
<path d="M213.055 250.294C213.055 260.869 204.483 269.441 193.908 269.441C183.333 269.441 174.76 260.869 174.76 250.294C174.76 239.719 183.333 231.146 193.908 231.146C204.483 231.146 213.055 239.719 213.055 250.294Z" stroke="#D0D1DC" stroke-width="0.5"/>
<path d="M199.35 250.381C199.35 247.329 196.876 244.855 193.823 244.855C190.771 244.855 188.297 247.329 188.297 250.381C188.297 253.433 190.771 255.908 193.823 255.908C196.876 255.908 199.35 253.433 199.35 250.381Z" fill="#FA4616"/>
<path d="M205.822 250.294C205.822 256.874 200.488 262.208 193.908 262.208C187.328 262.208 181.994 256.874 181.994 250.294C181.994 243.714 187.328 238.38 193.908 238.38C200.488 238.38 205.822 243.714 205.822 250.294Z" stroke="#D0D1DC" stroke-width="0.5"/>
<path d="M257.689 157.609L257.173 156.748C255.41 153.804 252.231 152.002 248.799 152.002V152.002H172.847V152.002C165.918 146.779 165.918 136.375 172.847 131.152V131.152H248.799L260.926 137.109L274.33 139.875" stroke="#D0D1DC" stroke-width="0.5"/>
<path d="M258.015 159.074V159.074C257.556 165 255.315 170.649 251.588 175.278L210.717 226.04V226.04C207.083 229.809 201.944 231.742 196.727 231.302L195.496 231.199M278.367 167.54L274.27 175.887C273.19 178.089 272.628 180.509 272.628 182.962V182.962C272.628 186.608 271.387 190.147 269.109 192.994L233.123 237.977C230.583 241.151 227.154 243.495 223.274 244.707V244.707C220.468 245.584 217.884 247.058 215.699 249.026L213.079 251.387" stroke="#D0D1DC" stroke-width="0.5"/>
<path d="M190.449 269.134V281.143M212.917 253.016L213.163 254.294C214.357 260.498 216.8 266.395 220.344 271.626L221.522 273.365C223.077 275.661 223.908 278.37 223.908 281.143V281.143M190.449 281.143H223.908M190.449 281.143V285.824M223.908 281.143V285.824M223.908 285.824H190.449M223.908 285.824V304.759M190.449 285.824V304.759M223.908 304.759V309.439H190.449V304.759M223.908 304.759H190.449" stroke="#D0D1DC" stroke-width="0.5"/>
<circle cx="155.188" cy="166.469" r="0.601011" fill="#808295" stroke="#D0D1DC" stroke-width="0.5"/>
<circle cx="168.145" cy="172.192" r="0.601011" transform="rotate(165 168.145 172.192)" fill="#808295" stroke="#D0D1DC" stroke-width="0.5"/>
<circle cx="160.721" cy="163.917" r="0.601011" fill="#808295" stroke="#D0D1DC" stroke-width="0.5"/>
<circle cx="165.167" cy="177.489" r="0.601011" transform="rotate(165 165.167 177.489)" fill="#808295" stroke="#D0D1DC" stroke-width="0.5"/>
<circle cx="166.251" cy="166.469" r="0.601011" fill="#808295" stroke="#D0D1DC" stroke-width="0.5"/>
<circle cx="154.955" cy="177.298" r="0.601011" transform="rotate(165 154.955 177.298)" fill="#808295" stroke="#D0D1DC" stroke-width="0.5"/>
<circle cx="152.401" cy="171.766" r="0.601011" transform="rotate(165 152.401 171.766)" fill="#808295" stroke="#D0D1DC" stroke-width="0.5"/>
<path d="M277.551 153.944C277.551 156.996 275.077 159.471 272.025 159.471C268.972 159.471 266.498 156.996 266.498 153.944C266.498 150.892 268.972 148.418 272.025 148.418C275.077 148.418 277.551 150.892 277.551 153.944Z" fill="#FA4616"/>
</svg>
