<svg xmlns="http://www.w3.org/2000/svg" version="1.1" xmlns:xlink="http://www.w3.org/1999/xlink" width="1500" height="1500" viewBox="0 0 1500 1500"><rect width="1500" height="1500" x="0" y="0" id="background" stroke="transparent" fill="#ffffff"></rect><svg xml:space="preserve" width="1000" height="1000" data-version="2" data-id="lg_OPFtVjONxzbzMUlEks" viewBox="0 0 519 123" x="250" y="250"><rect width="100%" height="100%" fill="transparent"></rect><path d="M162.722 89.462h-6.67v-37.09h6.18v6q2.04-3.28 5.28-5.01 3.25-1.73 7.02-1.73 3.95 0 7.32 1.95 3.37 1.94 5.47 5.62 2.1 3.68 2.1 8.93v21.33h-6.67v-20.4q0-4.39-2.63-7.76-2.63-3.36-7.38-3.36-2.6 0-4.89 1.26-2.28 1.27-3.71 3.68-1.42 2.41-1.42 5.99z"></path><rect width="33.37" height="37.83" x="-16.68" y="-18.91" fill="none" rx="0" ry="0" transform="translate(173.24 71.05)"></rect><path d="M215.552 90.202q-4.38 0-8.09-1.52-3.71-1.51-6.43-4.17-2.72-2.66-4.23-6.24-1.52-3.59-1.52-7.73 0-3.95 1.45-7.38 1.46-3.43 4.05-6.03 2.6-2.59 6.03-4.05 3.43-1.45 7.32-1.45 5.13 0 9.4 2.44 4.26 2.44 6.8 6.58 2.53 4.15 2.53 9.4v2.72h-24.23q-1.61 0-3.27-.12-1.67-.13-3.28-.38.43 3.28 2.32 5.94 1.88 2.66 4.79 4.17 2.9 1.51 6.43 1.51 3.52 0 6.55-1.6 3.03-1.61 4.88-4.27l1.85 7.6q-2.65 2.17-6.08 3.37-3.43 1.21-7.27 1.21m-13.65-22.44q1.66-.31 3.36-.43t3.37-.12h12.3q1.36 0 2.69.09 1.33.09 2.69.22-.56-2.91-2.35-5.13-1.79-2.23-4.33-3.53-2.53-1.3-5.5-1.3-3.03 0-5.59 1.4-2.57 1.39-4.3 3.67-1.73 2.29-2.34 5.13"></path><rect width="37.58" height="38.57" x="-18.79" y="-19.29" fill="none" rx="0" ry="0" transform="translate(214.57 71.42)"></rect><path d="M253.242 90.202q-3.89 0-7.29-1.95t-5.5-5.65q-2.1-3.71-2.1-8.9v-21.33h6.67v20.4q0 4.39 2.63 7.76 2.63 3.36 7.39 3.36 2.59 0 4.88-1.26 2.28-1.27 3.71-3.71 1.42-2.44 1.42-5.97v-20.58h6.67v37.09h-6.18v-6q-2.04 3.28-5.28 5.01-3.25 1.73-7.02 1.73"></path><rect width="33.37" height="37.83" x="-16.68" y="-18.91" fill="none" rx="0" ry="0" transform="translate(255.54 71.79)"></rect><path d="M287.592 89.462h-6.67v-37.09h6.18v6.8q1.98-3.27 5.25-5.22 3.28-1.95 7.79-1.95l1.67 6.68q-.62-.19-1.33-.28-.71-.09-1.39-.09-3.46 0-6.06 1.48-2.59 1.48-4.01 4.33-1.43 2.84-1.43 6.92z"></path><rect width="20.89" height="37.46" x="-10.45" y="-18.73" fill="none" rx="0" ry="0" transform="translate(291.87 71.23)"></rect><path d="M321.952 89.952q-3.84 0-7.17-1.48-3.34-1.49-5.91-4.11-2.56-2.63-3.98-6.06-1.42-3.43-1.42-7.39 0-3.95 1.42-7.38 1.42-3.43 3.98-6.06 2.57-2.62 5.91-4.11 3.33-1.48 7.17-1.48 3.83 0 7.2 1.42 3.36 1.42 5.84 3.96v-4.89h6.18v37.09h-6.18v-4.89q-2.48 2.48-5.84 3.93-3.37 1.45-7.2 1.45m.86-6.06q3.52 0 6.4-1.76 2.87-1.76 4.57-4.69 1.7-2.94 1.7-6.53 0-3.58-1.7-6.52-1.7-2.93-4.57-4.69-2.88-1.76-6.4-1.76-3.52 0-6.4 1.76-2.87 1.76-4.57 4.69-1.7 2.94-1.7 6.52 0 3.59 1.7 6.53 1.7 2.93 4.57 4.69 2.88 1.76 6.4 1.76"></path><rect width="37.7" height="38.07" x="-18.85" y="-19.04" fill="none" rx="0" ry="0" transform="translate(322.82 71.42)"></rect><path d="M357.042 89.462h-6.68v-59.34h6.68z"></path><rect width="6.68" height="59.34" x="-3.34" y="-29.67" fill="none" rx="0" ry="0" transform="translate(354.2 60.3)"></rect><path d="M375.822 90.202q-2.85 0-6.09-1.08-3.25-1.09-5.6-3.62l1.86-7.29q1.73 2.9 4.45 4.6 2.72 1.7 5.81 1.7 2.97 0 4.45-1.45t1.48-3.55q0-2.41-1.57-3.53-1.58-1.11-2.82-1.54l-5-1.92q-1.36-.55-3.28-1.64-1.91-1.08-3.34-3.12-1.42-2.04-1.42-5.31 0-2.97 1.42-5.44 1.43-2.47 4.02-3.93 2.6-1.45 6.12-1.45 2.78 0 5.81.99t5.13 3.34l-1.85 7.29q-.99-1.79-2.48-3.12-1.48-1.33-3.21-2.07-1.73-.74-3.59-.74-2.53 0-3.98 1.42-1.45 1.42-1.45 3.27 0 1.49.98 2.66.99 1.18 2.97 1.92l5.01 1.91q1.36.5 3.37 1.61 2 1.11 3.55 3.21 1.55 2.11 1.55 5.69 0 3.34-1.61 5.84t-4.36 3.93q-2.75 1.42-6.33 1.42"></path><rect width="23.99" height="38.57" x="-11.99" y="-19.29" fill="none" rx="0" ry="0" transform="translate(376.63 71.42)"></rect><path d="M401.762 89.462h-6.67v-59.34h6.67v27.51q2.1-2.91 5.19-4.45 3.09-1.55 6.62-1.55 3.95 0 7.32 1.95 3.37 1.94 5.47 5.62 2.1 3.68 2.1 8.93v21.33h-6.67v-20.4q0-2.97-1.18-5.5-1.17-2.53-3.4-4.08-2.22-1.54-5.44-1.54-2.59 0-4.88 1.26-2.29 1.27-3.71 3.68t-1.42 5.99z"></path><rect width="33.37" height="59.34" x="-16.68" y="-29.67" fill="none" rx="0" ry="0" transform="translate(412.28 60.3)"></rect><path d="M454.592 90.202q-4.38 0-8.09-1.52-3.71-1.51-6.43-4.17-2.72-2.66-4.23-6.24-1.52-3.59-1.52-7.73 0-3.95 1.45-7.38 1.46-3.43 4.05-6.03 2.6-2.59 6.03-4.05 3.43-1.45 7.32-1.45 5.13 0 9.4 2.44 4.26 2.44 6.79 6.58 2.54 4.15 2.54 9.4v2.72h-24.23q-1.61 0-3.27-.12-1.67-.13-3.28-.38.43 3.28 2.32 5.94 1.88 2.66 4.79 4.17 2.9 1.51 6.43 1.51 3.52 0 6.55-1.6 3.02-1.61 4.88-4.27l1.85 7.6q-2.65 2.17-6.08 3.37-3.43 1.21-7.27 1.21m-13.66-22.44q1.67-.31 3.37-.43 1.7-.12 3.37-.12h12.3q1.36 0 2.69.09 1.33.09 2.69.22-.56-2.91-2.35-5.13-1.79-2.23-4.33-3.53-2.53-1.3-5.5-1.3-3.03 0-5.59 1.4-2.57 1.39-4.3 3.67-1.73 2.29-2.35 5.13"></path><rect width="37.58" height="38.57" x="-18.79" y="-19.29" fill="none" rx="0" ry="0" transform="translate(453.61 71.42)"></rect><path d="M494.012 89.952q-3.83 0-7.17-1.48-3.33-1.49-5.9-4.11-2.56-2.63-3.99-6.06-1.42-3.43-1.42-7.39 0-3.95 1.42-7.38 1.43-3.43 3.99-6.06 2.57-2.62 5.9-4.11 3.34-1.48 7.17-1.48 3.65 0 6.86 1.3 3.22 1.29 5.69 3.58v-26.64h6.67v59.34h-6.18v-4.89q-2.47 2.48-5.84 3.93-3.37 1.45-7.2 1.45m.87-6.06q3.52 0 6.39-1.76 2.88-1.76 4.58-4.69 1.7-2.94 1.7-6.53 0-3.58-1.7-6.52-1.7-2.93-4.58-4.69-2.87-1.76-6.39-1.76-3.52 0-6.4 1.76-2.87 1.76-4.57 4.69-1.7 2.94-1.7 6.52 0 3.59 1.7 6.53 1.7 2.93 4.57 4.69 2.88 1.76 6.4 1.76"></path><rect width="37.7" height="59.83" x="-18.85" y="-29.91" fill="none" rx="0" ry="0" transform="translate(494.88 60.54)"></rect><path d="M148.47 34.558a11.11 11.11 0 0 1-20.656 5.686l-41.021 12.93c.202 1.041.306 2.101.309 3.163v.192l12.636 1.622a7.782 7.782 0 1 1-.5 3.884L86.606 60.41a16.79 16.79 0 0 1-3.482 6.789l21.644 23.104a11.108 11.108 0 1 1-2.858 2.68L80.258 69.88a16.756 16.756 0 0 1-11.315 3.25l-5.348 27.212a11.106 11.106 0 1 1-4.029-.759h.189l5.346-27.21a16.858 16.858 0 0 1-6.567-3.95l-8.68 7.086a7.802 7.802 0 1 1-2.473-3.03l8.68-7.08a16.753 16.753 0 0 1-2.57-10.76L26.14 48.602a11.11 11.11 0 1 1 .853-4.268c0 .154 0 .296-.011.445l27.362 6.036A16.938 16.938 0 0 1 60.7 42.47l-3.338-6.299a7.8 7.8 0 1 1 3.457-1.835l3.338 6.297a16.785 16.785 0 0 1 10.685-.51L82.51 21.58a11.066 11.066 0 1 1 3.615 1.5l-7.667 18.544a16.961 16.961 0 0 1 7.167 7.815l40.809-12.859a11.11 11.11 0 1 1 22.037-2.022"></path></svg></svg>